<?xml version="1.0" encoding="UTF-8" standalone="no"?>
<!-- Created with Inkscape (http://www.inkscape.org/) -->

<svg
   width="25"
   height="25"
   viewBox="0 0 6.6145832 6.6145833"
   version="1.1"
   id="svg1"
   xml:space="preserve"
   xmlns="http://www.w3.org/2000/svg"
   xmlns:svg="http://www.w3.org/2000/svg"><defs
     id="defs1" /><g
     id="layer1"><g
       id="g2"
       transform="matrix(0.26458333,0,0,0.26458333,-4.5329613,-7.7499018)"><rect
         style="fill:#478cbf;fill-opacity:1;stroke-width:0.35075"
         id="rect1"
         width="25"
         height="25"
         x="17.132452"
         y="29.290968"
         ry="5.1851854" /><path
         id="path80-0"
         style="fill:#ebebeb;fill-opacity:1;fill-rule:nonzero;stroke:none;stroke-width:0.0189316"
         d="m 27.978542,32.039453 c -0.601908,0.133808 -1.197348,0.320119 -1.755573,0.601092 0.01277,0.492923 0.04465,0.965208 0.109229,1.444965 -0.216786,0.13889 -0.44466,0.258133 -0.64714,0.42072 -0.20574,0.158279 -0.415815,0.309711 -0.602125,0.494825 -0.372186,-0.246176 -0.766125,-0.477515 -1.171926,-0.68172 -0.437419,0.470762 -0.846399,0.97889 -1.180526,1.547454 0.251366,0.406657 0.513766,0.787756 0.797104,1.149466 h 0.008 v 2.808296 0.356669 0.324616 c 0,0 0,0 0,0 0,0 2.7e-5,9.5e-5 0,9.5e-5 l -0.003,0.461496 -0.0015,-5.4e-5 c 0.0015,0.206759 0.0035,0.433261 0.0035,0.478357 0,2.0316 2.577243,3.00814 5.779219,3.019376 h 0.0038 0.0041 c 3.201991,-0.01114 5.778295,-0.987776 5.778295,-3.019376 0,-0.04592 0.0029,-0.271489 0.0037,-0.478357 l -0.0015,5.4e-5 -0.003,-0.461591 V 40.22739 h 0.0015 v -3.210809 h 0.008 c 0.283406,-0.361723 0.545629,-0.742836 0.797118,-1.149493 -0.334005,-0.568551 -0.743203,-1.076678 -1.180635,-1.54744 -0.405679,0.204191 -0.799754,0.435557 -1.17194,0.681733 -0.186228,-0.185128 -0.395963,-0.336559 -0.601989,-0.494839 -0.202438,-0.162587 -0.430571,-0.28183 -0.64695,-0.42072 0.06443,-0.479743 0.09627,-0.952041 0.10908,-1.444951 -0.558279,-0.280987 -1.153638,-0.467284 -1.755844,-0.601106 -0.240429,0.404089 -0.460314,0.841739 -0.651787,1.269524 -0.227086,-0.03796 -0.455219,-0.05204 -0.683663,-0.05476 v 0 c -0.0015,0 -0.003,0 -0.0043,0 -0.0015,0 -0.003,0 -0.0043,0 v 0 c -0.228826,0.0029 -0.456781,0.01679 -0.683922,0.05476 -0.191364,-0.427785 -0.411113,-0.865435 -0.651882,-1.269524 z" /><path
         id="path2"
         style="fill:#ebebeb;fill-opacity:1;stroke-width:0.241489"
         d="m 29.325337,45.248922 a 8.3244377,8.6007674 0 0 0 -8.324042,8.601021 8.3244377,8.6007674 0 0 0 0.02688,0.280607 c 0.412038,0.104718 0.843804,0.160195 1.289321,0.160195 h 14.629596 c 0.225591,0 0.447242,-0.01573 0.665075,-0.04341 a 8.3244377,8.6007674 0 0 0 0.03773,-0.39739 8.3244377,8.6007674 0 0 0 -8.324559,-8.601021 z" /></g></g></svg>
