<?xml version="1.0" encoding="UTF-8" standalone="no"?>
<!-- Created with Inkscape (http://www.inkscape.org/) -->

<svg
   width="380mm"
   height="213mm"
   viewBox="0 0 380 213"
   version="1.1"
   id="svg1"
   xml:space="preserve"
   xmlns="http://www.w3.org/2000/svg"
   xmlns:svg="http://www.w3.org/2000/svg"><defs
     id="defs1" /><g
     id="layer1"><rect
       style="fill:#333f67;fill-opacity:1;stroke-width:0.254115"
       id="rect1"
       width="380"
       height="213"
       x="0"
       y="0" /><path
       id="path80-0"
       style="fill:#ebebeb;fill-opacity:1;fill-rule:nonzero;stroke:none;stroke-width:0.0598092"
       d="m 257.73574,20.157541 c -1.90157,0.422729 -3.78271,1.011329 -5.54626,1.898988 0.0403,1.557256 0.14105,3.049313 0.34508,4.564976 -0.68488,0.438786 -1.40478,0.815501 -2.04447,1.329151 -0.64998,0.500039 -1.31365,0.978448 -1.90225,1.563266 -1.17582,-0.777728 -2.42036,-1.50858 -3.70237,-2.153711 -1.38193,1.487247 -2.67397,3.092539 -3.72957,4.888763 0.79412,1.284724 1.62311,2.488703 2.51824,3.631427 h 0.0253 v 8.872054 1.1268 1.025535 c 0,0 0,0 0,0 0,0 1e-4,3.01e-4 0,3.01e-4 l -0.009,1.457973 -0.005,-1.7e-4 c 0.005,0.653198 0.0106,1.36877 0.0106,1.511238 0,6.418292 8.1421,9.503407 18.25788,9.538904 h 0.0123 0.0129 c 10.11584,-0.03518 18.25497,-3.120612 18.25497,-9.538904 0,-0.145071 0.008,-0.857695 0.0106,-1.511238 l -0.005,1.7e-4 -0.009,-1.458274 v -0.879674 h 0.005 V 35.881432 h 0.0253 c 0.89535,-1.142767 1.72377,-2.346789 2.51828,-3.631512 -1.0552,-1.796185 -2.34795,-3.401474 -3.72989,-4.88872 -1.28164,0.645087 -2.52661,1.376025 -3.70243,2.153751 -0.58834,-0.584861 -1.25094,-1.063267 -1.90184,-1.563309 -0.63954,-0.513651 -1.36026,-0.890367 -2.04385,-1.329152 0.20356,-1.515617 0.30414,-3.007715 0.34461,-4.564931 -1.76373,-0.887702 -3.64461,-1.476258 -5.54712,-1.899033 -0.75956,1.27661 -1.45424,2.659248 -2.05914,4.010718 -0.71741,-0.119919 -1.43814,-0.164406 -2.15985,-0.172999 v 0 c -0.005,0 -0.009,0 -0.0135,0 -0.005,0 -0.009,0 -0.0136,0 v 0 c -0.72291,0.0092 -1.44307,0.05304 -2.16066,0.172999 -0.60455,-1.35147 -1.29879,-2.734108 -2.05945,-4.010718 z" /><g
       id="g8"><rect
         style="fill:#ebebeb;fill-opacity:1;stroke-width:0.264583"
         id="rect2"
         width="64.905602"
         height="16.949869"
         x="286.90756"
         y="32.246094" /><rect
         style="fill:#ebebeb;fill-opacity:1;stroke-width:0.264583"
         id="rect3"
         width="33.072918"
         height="4.1341147"
         x="13.229166"
         y="112.86133" /><rect
         style="fill:#ebebeb;fill-opacity:1;stroke-width:0.266308"
         id="rect4"
         width="144.0739"
         height="12.402344"
         x="13.02246"
         y="130.22461" /><rect
         style="fill:#ebebeb;fill-opacity:1;stroke-width:0.264392"
         id="rect5"
         width="56.223957"
         height="25.218098"
         x="13.229166"
         y="159.57681" /><rect
         style="fill:#ebebeb;fill-opacity:1;stroke-width:0.262441"
         id="rect6"
         width="107.48698"
         height="25.218098"
         x="88.056641"
         y="159.57681" /></g></g></svg>
